HIERARCHY
ROOT Hips
{
	OFFSET 0.000000 100.481300 0.000000
	CHANNELS 6 Xposition Yposition Zposition Xrotation Yrotation Zrotation
	JOINT Spine
	{
		OFFSET -0.279200 12.230698 -2.892100
		CHANNELS 3 Xrotation Yrotation Zrotation
		JOINT Spine1
		{
			OFFSET -0.325700 14.269203 -3.374200
			CHANNELS 3 Xrotation Yrotation Zrotation
			JOINT Spine2
			{
				OFFSET -0.372300 16.307602 -0.352600
				CHANNELS 3 Xrotation Yrotation Zrotation
				JOINT Neck
				{
					OFFSET -0.418800 17.814194 8.416900
					CHANNELS 3 Xrotation Yrotation Zrotation
					JOINT Head
					{
						OFFSET 0.000000 7.031097 3.806800
						CHANNELS 3 Xrotation Yrotation Zrotation
						JOINT HeadTop_End
						{
							OFFSET 0.000000 24.646606 12.978600
							CHANNELS 3 Xrotation Yrotation Zrotation
							End Site
							{
								OFFSET 0.000000 27.854965 0.000000
							}
						}
					}
				}
				JOINT LeftShoulder
				{
					OFFSET 16.952999 14.495407 -7.737500
					CHANNELS 3 Xrotation Yrotation Zrotation
					JOINT LeftArm
					{
						OFFSET 9.308998 -2.777710 0.208600
						CHANNELS 3 Xrotation Yrotation Zrotation
						JOINT LeftForeArm
						{
							OFFSET 29.972298 0.000000 0.000000
							CHANNELS 3 Xrotation Yrotation Zrotation
							JOINT LeftHand
							{
								OFFSET 26.026505 0.000000 0.000000
								CHANNELS 3 Xrotation Yrotation Zrotation
								JOINT LeftHandThumb1
								{
									OFFSET 12.240501 -7.147949 9.207150
									CHANNELS 3 Xrotation Yrotation Zrotation
									JOINT LeftHandThumb2
									{
										OFFSET 4.138618 -2.389435 2.389433
										CHANNELS 3 Xrotation Yrotation Zrotation
										JOINT LeftHandThumb3
										{
											OFFSET 2.726913 -1.574387 1.574386
											CHANNELS 3 Xrotation Yrotation Zrotation
											JOINT LeftHandThumb4
											{
												OFFSET 3.941010 -2.275345 2.275342
												CHANNELS 3 Xrotation Yrotation Zrotation
												End Site
												{
													OFFSET -0.005798 5.087799 0.009903
												}
											}
										}
									}
								}
								JOINT LeftHandIndex1
								{
									OFFSET 24.424698 -1.985611 5.953459
									CHANNELS 3 Xrotation Yrotation Zrotation
									JOINT LeftHandIndex2
									{
										OFFSET 6.426697 0.000000 0.000000
										CHANNELS 3 Xrotation Yrotation Zrotation
										JOINT LeftHandIndex3
										{
											OFFSET 5.337898 0.000000 0.000000
											CHANNELS 3 Xrotation Yrotation Zrotation
											JOINT LeftHandIndex4
											{
												OFFSET 4.409401 0.000000 0.000000
												CHANNELS 3 Xrotation Yrotation Zrotation
												End Site
												{
													OFFSET 0.000000 4.409363 0.014373
												}
											}
										}
									}
								}
								JOINT LeftHandMiddle1
								{
									OFFSET 23.810104 0.000000 0.000000
									CHANNELS 3 Xrotation Yrotation Zrotation
									JOINT LeftHandMiddle2
									{
										OFFSET 7.176498 0.000000 0.000000
										CHANNELS 3 Xrotation Yrotation Zrotation
										JOINT LeftHandMiddle3
										{
											OFFSET 6.774902 0.000000 0.000000
											CHANNELS 3 Xrotation Yrotation Zrotation
											JOINT LeftHandMiddle4
											{
												OFFSET 5.403328 0.000000 0.000000
												CHANNELS 3 Xrotation Yrotation Zrotation
												End Site
												{
													OFFSET -0.027702 5.403244 0.017414
												}
											}
										}
									}
								}
								JOINT LeftHandRing1
								{
									OFFSET 22.908401 -0.839279 -6.020567
									CHANNELS 3 Xrotation Yrotation Zrotation
									JOINT LeftHandRing2
									{
										OFFSET 6.337502 0.000000 0.000000
										CHANNELS 3 Xrotation Yrotation Zrotation
										JOINT LeftHandRing3
										{
											OFFSET 5.779297 0.000000 0.000000
											CHANNELS 3 Xrotation Yrotation Zrotation
											JOINT LeftHandRing4
											{
												OFFSET 4.965698 0.000000 0.000000
												CHANNELS 3 Xrotation Yrotation Zrotation
												End Site
												{
													OFFSET 0.000000 4.965668 0.016186
												}
											}
										}
									}
								}
								JOINT LeftHandPinky1
								{
									OFFSET 20.037003 -1.530319 -10.950146
									CHANNELS 3 Xrotation Yrotation Zrotation
									JOINT LeftHandPinky2
									{
										OFFSET 5.254700 0.000000 0.000000
										CHANNELS 3 Xrotation Yrotation Zrotation
										JOINT LeftHandPinky3
										{
											OFFSET 4.810204 0.000000 0.000000
											CHANNELS 3 Xrotation Yrotation Zrotation
											JOINT LeftHandPinky4
											{
												OFFSET 3.647202 0.000000 0.000000
												CHANNELS 3 Xrotation Yrotation Zrotation
												End Site
												{
													OFFSET 0.000000 3.647186 0.011889
												}
											}
										}
									}
								}
							}
						}
					}
				}
				JOINT RightShoulder
				{
					OFFSET -15.141001 14.495407 -7.737500
					CHANNELS 3 Xrotation Yrotation Zrotation
					JOINT RightArm
					{
						OFFSET -9.308998 -2.777710 0.208500
						CHANNELS 3 Xrotation Yrotation Zrotation
						JOINT RightForeArm
						{
							OFFSET -29.972300 0.000000 0.000000
							CHANNELS 3 Xrotation Yrotation Zrotation
							JOINT RightHand
							{
								OFFSET -26.026505 0.000000 0.000000
								CHANNELS 3 Xrotation Yrotation Zrotation
								JOINT RightHandThumb1
								{
									OFFSET -12.240601 -7.148026 9.207092
									CHANNELS 3 Xrotation Yrotation Zrotation
									JOINT RightHandThumb2
									{
										OFFSET -4.138618 -2.389435 2.389433
										CHANNELS 3 Xrotation Yrotation Zrotation
										JOINT RightHandThumb3
										{
											OFFSET -2.726974 -1.574417 1.574421
											CHANNELS 3 Xrotation Yrotation Zrotation
											JOINT RightHandThumb4
											{
												OFFSET -3.941010 -2.275345 2.275343
												CHANNELS 3 Xrotation Yrotation Zrotation
												End Site
												{
													OFFSET 0.005814 5.087799 0.009927
												}
											}
										}
									}
								}
								JOINT RightHandIndex1
								{
									OFFSET -24.424698 -1.985657 5.953444
									CHANNELS 3 Xrotation Yrotation Zrotation
									JOINT RightHandIndex2
									{
										OFFSET -6.426697 0.000000 0.000000
										CHANNELS 3 Xrotation Yrotation Zrotation
										JOINT RightHandIndex3
										{
											OFFSET -5.337898 0.000000 0.000000
											CHANNELS 3 Xrotation Yrotation Zrotation
											JOINT RightHandIndex4
											{
												OFFSET -4.409401 0.000000 0.000000
												CHANNELS 3 Xrotation Yrotation Zrotation
												End Site
												{
													OFFSET 0.000000 4.409363 0.014408
												}
											}
										}
									}
								}
								JOINT RightHandMiddle1
								{
									OFFSET -23.810097 0.000000 0.000000
									CHANNELS 3 Xrotation Yrotation Zrotation
									JOINT RightHandMiddle2
									{
										OFFSET -7.176498 0.000000 0.000000
										CHANNELS 3 Xrotation Yrotation Zrotation
										JOINT RightHandMiddle3
										{
											OFFSET -6.774902 0.000000 0.000000
											CHANNELS 3 Xrotation Yrotation Zrotation
											JOINT RightHandMiddle4
											{
												OFFSET -5.403328 0.000000 0.000000
												CHANNELS 3 Xrotation Yrotation Zrotation
												End Site
												{
													OFFSET 0.027702 5.403244 0.017457
												}
											}
										}
									}
								}
								JOINT RightHandRing1
								{
									OFFSET -22.908302 -0.839325 -6.020576
									CHANNELS 3 Xrotation Yrotation Zrotation
									JOINT RightHandRing2
									{
										OFFSET -6.337502 0.000000 0.000000
										CHANNELS 3 Xrotation Yrotation Zrotation
										JOINT RightHandRing3
										{
											OFFSET -5.779297 0.000000 0.000000
											CHANNELS 3 Xrotation Yrotation Zrotation
											JOINT RightHandRing4
											{
												OFFSET -4.965698 0.000000 0.000000
												CHANNELS 3 Xrotation Yrotation Zrotation
												End Site
												{
													OFFSET 0.000000 4.965668 0.016226
												}
											}
										}
									}
								}
								JOINT RightHandPinky1
								{
									OFFSET -20.037003 -1.530334 -10.950259
									CHANNELS 3 Xrotation Yrotation Zrotation
									JOINT RightHandPinky2
									{
										OFFSET -5.254700 0.000000 0.000000
										CHANNELS 3 Xrotation Yrotation Zrotation
										JOINT RightHandPinky3
										{
											OFFSET -4.810204 0.000000 0.000000
											CHANNELS 3 Xrotation Yrotation Zrotation
											JOINT RightHandPinky4
											{
												OFFSET -3.647202 0.000000 0.000000
												CHANNELS 3 Xrotation Yrotation Zrotation
												End Site
												{
													OFFSET 0.000000 3.647186 0.011917
												}
											}
										}
									}
								}
							}
						}
					}
				}
			}
		}
	}
	JOINT LeftUpLeg
	{
		OFFSET 15.427100 -6.655098 0.678600
		CHANNELS 3 Xrotation Yrotation Zrotation
		JOINT LeftLeg
		{
			OFFSET 4.081073 -39.591068 13.024000
			CHANNELS 3 Xrotation Yrotation Zrotation
			JOINT LeftFoot
			{
				OFFSET -4.081074 -37.707932 -15.979700
				CHANNELS 3 Xrotation Yrotation Zrotation
				JOINT LeftToeBase
				{
					OFFSET 5.346399 -15.068900 20.645000
					CHANNELS 3 Xrotation Yrotation Zrotation
					JOINT LeftToe_End
					{
						OFFSET 2.754700 0.931300 11.300900
						CHANNELS 3 Xrotation Yrotation Zrotation
						End Site
						{
							OFFSET 0.000000 11.669021 0.000000
						}
					}
				}
			}
		}
	}
	JOINT RightUpLeg
	{
		OFFSET -15.569500 -6.655098 0.678600
		CHANNELS 3 Xrotation Yrotation Zrotation
		JOINT RightLeg
		{
			OFFSET -4.081825 -39.591045 13.023800
			CHANNELS 3 Xrotation Yrotation Zrotation
			JOINT RightFoot
			{
				OFFSET 4.081824 -37.707954 -15.979600
				CHANNELS 3 Xrotation Yrotation Zrotation
				JOINT RightToeBase
				{
					OFFSET -5.346400 -15.068900 20.645000
					CHANNELS 3 Xrotation Yrotation Zrotation
					JOINT RightToe_End
					{
						OFFSET -2.754700 0.931300 11.300900
						CHANNELS 3 Xrotation Yrotation Zrotation
						End Site
						{
							OFFSET 0.000000 11.669021 0.000000
						}
					}
				}
			}
		}
	}
}
MOTION
Frames: 4
Frame Time: 0.033333
0.170969 80.063599 -0.571955 -11.870419 -57.710857 -3.754396 6.704594 0.922098 -2.755524 13.440118 1.505927 -5.282126 13.440110 1.505925 -5.282129 3.996201 2.607459 -0.466369 -8.638512 40.681338 -5.376916 0.000001 0.000001 -0.000000 -0.177266 -6.033958 5.204533 -21.071660 17.785755 -57.231480 -0.000002 -126.318775 0.000006 -6.641496 -5.398318 -3.626816 -2.154148 6.800150 9.892470 25.836140 36.182449 -25.085229 4.655830 20.248133 19.841257 0.000001 -0.000001 -0.000000 20.887367 7.645944 -92.409645 7.469751 5.623438 -106.086881 5.011190 5.790668 -81.733049 0.000000 0.000000 0.000001 12.668638 7.118941 -99.980459 7.120933 5.712073 -102.556008 4.565108 5.708482 -77.282511 0.000000 -0.000001 0.000001 5.661447 8.254805 -95.778595 8.216140 5.353275 -113.878754 3.071863 5.150898 -61.599646 0.000001 0.000005 -0.000000 -3.644705 8.906824 -93.940045 7.168180 5.701395 -103.031095 6.923482 5.752271 -100.579508 0.000001 0.000001 -0.000000 10.920031 26.931033 3.130401 -46.478146 38.185853 48.496071 -0.000000 110.564493 -0.000016 -26.511577 16.043020 15.588643 -8.111478 -3.692804 -18.705689 26.143729 -37.999194 25.232445 5.914729 -26.488469 -20.700683 0.000003 0.000000 -0.000000 19.572505 -6.576402 91.648612 5.943187 -4.476448 106.046740 3.989503 -4.609172 81.748649 0.000002 -0.000000 0.000001 11.198733 -5.956231 99.192652 5.665634 -4.546911 102.519316 3.635305 -4.543924 77.311594 -0.000000 0.000001 0.000001 4.287420 -6.986213 95.001607 6.537174 -4.261612 113.831653 2.447219 -4.100458 61.645223 -0.000001 -0.000001 -0.000000 -5.012285 -7.516433 93.187870 5.704991 -4.538031 103.015980 5.510488 -4.578473 100.569249 0.000003 0.000001 0.000001 -23.761449 13.530565 23.434760 38.772938 -6.033276 -1.744634 -5.537727 2.763688 -17.058749 -2.491654 -0.000016 0.000003 0.000000 -0.000002 -0.000000 -23.659220 0.611624 -24.036470 49.588567 5.376664 -7.091185 -17.385415 -4.751886 18.560033 -2.274969 -0.000001 0.000004 0.000000 0.000001 -0.000000 
-0.258240 80.030525 -0.175007 -11.166292 -55.779167 -2.668243 5.617720 0.866308 -1.950533 12.694115 1.504766 -4.730570 12.699886 1.494881 -4.722999 3.404693 2.392189 -0.692744 -4.558409 38.838795 -7.458298 0.000001 -0.000001 0.000000 -0.076187 -4.719240 4.321952 -19.256641 10.790954 -58.109262 0.000012 -121.487058 -0.000012 -9.005542 -7.280685 -2.112344 -2.130746 6.918945 9.869797 26.002301 36.131817 -25.126055 4.664707 20.115491 19.772564 0.000000 0.000001 0.000000 20.995785 7.757748 -91.972848 7.444513 5.630627 -105.829465 4.985980 5.786967 -81.483030 0.000000 0.000001 -0.000001 12.791636 7.112491 -99.840461 7.093270 5.718127 -102.278210 4.565125 5.708485 -77.282498 0.000001 -0.000001 0.000002 5.652721 8.254419 -95.694010 8.205026 5.358174 -113.759553 3.071856 5.150889 -61.599632 0.000001 0.000003 -0.000001 -3.559631 8.888000 -93.869530 7.142842 5.707164 -102.776076 6.897676 5.757011 -100.321764 -0.000001 0.000002 -0.000001 10.620770 26.038353 4.107720 -43.607203 39.302213 46.955191 0.000016 110.141028 -0.000002 -27.458248 16.123841 15.752750 -7.993293 -3.880567 -18.607148 26.101349 -38.016020 25.144331 5.975163 -26.488334 -20.585932 0.000005 -0.000001 -0.000000 19.576331 -6.562731 91.700590 5.943198 -4.476457 106.046733 3.989499 -4.609173 81.748649 -0.000001 0.000000 -0.000001 11.216141 -5.950720 99.219235 5.666363 -4.546737 102.528584 3.635303 -4.543924 77.311594 -0.000004 0.000002 0.000000 4.289625 -6.986392 95.028313 6.537157 -4.261612 113.831659 2.447238 -4.100445 61.645217 -0.000002 0.000000 -0.000000 -4.992102 -7.494163 93.068199 5.703304 -4.538410 102.994786 5.508737 -4.578815 100.547215 0.000003 0.000001 0.000002 -24.210162 12.915445 21.901862 38.988332 -6.567767 -0.998102 -5.620004 2.682724 -16.847128 -2.491664 0.000021 0.000004 -0.000000 0.000000 0.000000 -22.543005 -0.462569 -25.786903 49.557629 5.343841 -6.227438 -18.474774 -5.167681 18.442049 -2.364012 -0.000019 0.021175 0.000000 -0.000001 0.000000 
-1.099627 80.377205 1.058729 -12.302305 -52.752181 -2.085890 3.962744 1.838789 -0.713210 11.593742 2.216302 -4.056355 11.603852 2.193949 -4.032644 1.621006 1.893077 -1.250719 -12.597867 36.527001 -6.758196 0.000000 -0.000000 -0.000000 0.000921 -3.523109 3.990837 -15.410877 -0.127417 -61.038423 0.000000 -111.612914 -0.000000 -8.112570 -7.997439 -1.469655 -2.105850 7.041847 9.846518 26.174265 36.079945 -25.165815 4.673845 19.977521 19.700827 -0.000001 0.000000 -0.000002 21.243942 7.619514 -92.463713 7.423612 5.636481 -105.616568 4.965568 5.783893 -81.280617 -0.000000 0.000001 0.000001 12.934754 7.022211 -100.452521 7.096322 5.717478 -102.308775 4.565125 5.708483 -77.282518 0.000001 0.000000 0.000002 5.657595 8.254634 -95.741302 8.204575 5.358370 -113.754758 3.071872 5.150901 -61.599632 0.000001 0.000003 -0.000004 -3.448433 8.911093 -94.053105 7.126825 5.710763 -102.615061 6.881243 5.759955 -100.158092 -0.000001 0.000002 0.000001 9.698890 25.161913 6.781160 -36.522350 40.245568 42.466182 0.000051 110.901399 -0.000054 -28.040875 16.324763 15.172386 -7.858601 -4.070936 -18.507967 26.055251 -38.034615 25.051621 6.037496 -26.488078 -20.467548 -0.000000 0.000000 -0.000000 19.564317 -6.605644 91.537813 5.943200 -4.476464 106.046706 3.989502 -4.609171 81.748642 0.000001 -0.000000 -0.000004 11.211064 -6.002964 98.721936 5.663977 -4.547275 102.498272 3.635300 -4.543925 77.311594 -0.000002 0.000000 -0.000000 4.273008 -6.984912 94.826262 6.535393 -4.262411 113.807672 2.447240 -4.100452 61.645237 0.000003 -0.000001 -0.000005 -5.076463 -7.361243 92.283014 5.704721 -4.538088 103.012790 5.510183 -4.578552 100.565431 -0.000000 -0.000000 0.000001 -22.462846 12.954867 18.622574 38.395495 -7.627766 -0.252859 -5.962531 2.452401 -15.896866 -2.482184 0.000001 -0.000005 -0.000000 0.000003 0.000000 -18.253056 -1.800771 -28.543094 48.614923 4.008869 -6.296152 -20.267714 -6.072232 20.024796 -2.509114 -0.000014 0.053490 0.000000 -0.000000 0.000000 
-2.344360 80.968300 3.684753 -15.946410 -49.093969 -1.467086 1.799714 3.995944 1.203500 10.220423 3.815172 -3.223264 10.235635 3.777664 -3.171880 -4.026642 0.797606 -0.804829 -50.315422 29.762129 3.616559 0.000002 0.000001 0.000000 -0.054616 -2.549619 4.993719 -9.899197 -7.311915 -68.958239 0.000096 -99.994550 0.000111 -4.824753 -5.654285 -6.116984 -2.074576 7.185854 9.819832 26.376036 36.020819 -25.205428 4.684986 19.813636 19.614215 0.000003 0.000000 -0.000001 21.393992 7.346647 -93.452827 7.422991 5.636647 -105.610209 4.965264 5.783845 -81.277680 -0.000002 -0.000001 -0.000001 13.000188 6.931073 -101.185366 7.135595 5.708798 -102.703362 4.565115 5.708488 -77.282511 -0.000000 0.000006 0.000001 5.672540 8.255271 -95.886212 8.200730 5.360053 -113.713429 3.071863 5.150889 -61.599618 0.000001 0.000004 0.000001 -3.356620 8.995672 -94.590320 7.107070 5.715139 -102.416603 6.861229 5.763501 -99.958726 -0.000000 0.000000 0.000000 8.802353 26.322096 9.769378 -27.768341 40.127805 36.042113 0.000001 110.948350 -0.000006 -26.985994 15.061146 14.800938 -7.703709 -4.290717 -18.383632 25.989305 -38.063722 24.942394 6.110805 -26.487653 -20.328361 0.000001 -0.000000 0.000001 19.255061 -7.578943 87.800729 5.949846 -4.474540 106.131946 3.989503 -4.609173 81.748649 0.000000 -0.000001 -0.000006 10.701516 -6.526473 94.102474 5.651759 -4.549960 102.344238 3.635302 -4.543924 77.311601 -0.000001 -0.000004 -0.000007 4.014891 -6.954065 91.676001 6.517265 -4.270315 113.564244 2.447230 -4.100455 61.645230 0.000001 -0.000001 0.000002 -5.978815 -6.468320 87.295780 5.708576 -4.537188 103.061401 5.515135 -4.577624 100.627551 -0.000000 -0.000002 0.000002 -16.945382 14.165130 13.015020 36.791091 -9.346764 -0.336501 -6.987285 2.096659 -13.447487 -2.438308 -0.000016 -0.000001 -0.000000 0.000003 0.000000 -10.490889 -4.036608 -33.110783 46.513428 1.872229 -8.018978 -22.387381 -7.580748 23.846685 -2.916689 -0.000052 -0.000008 -0.000000 -0.000001 0.000000 
